<?xml version="1.0" encoding="UTF-8" standalone="no"?>
<!DOCTYPE svg PUBLIC "-//W3C//DTD SVG 1.1//EN"
 "http://www.w3.org/Graphics/SVG/1.1/DTD/svg11.dtd">
<!-- Generated by graphviz version 2.36.0 (20140111.2315)
 -->
<!-- Title: %3 Pages: 1 -->
<svg width="678pt" height="206pt"
 viewBox="0.00 0.00 678.00 206.00" xmlns="http://www.w3.org/2000/svg" xmlns:xlink="http://www.w3.org/1999/xlink">
<g id="graph0" class="graph" transform="scale(1 1) rotate(0) translate(4 202)">
<title>%3</title>
<g id="clust1" class="cluster"><title>cluster_component</title>
<polygon fill="none" stroke="black" points="8,-8 8,-190 96,-190 96,-8 8,-8"/>
<text text-anchor="middle" x="52" y="-174.8" font-family="Times,serif" font-size="14.00">component</text>
</g>
<g id="clust3" class="cluster"><title>cluster_actioncreator</title>
<polygon fill="none" stroke="black" points="116,-8 116,-190 438,-190 438,-8 116,-8"/>
<text text-anchor="middle" x="277" y="-174.8" font-family="Times,serif" font-size="14.00">action creator</text>
</g>
<g id="clust6" class="cluster"><title>cluster_reducer</title>
<polygon fill="none" stroke="black" points="458,-8 458,-190 662,-190 662,-8 458,-8"/>
<text text-anchor="middle" x="560" y="-174.8" font-family="Times,serif" font-size="14.00">battlefield reducer</text>
</g>
<!-- bogus -->
<g id="node1" class="node"><title>bogus</title>
<ellipse fill="none" stroke="none" cx="52" cy="-34" rx="31.4723" ry="18"/>
<text text-anchor="middle" x="52" y="-29.8" font-family="Times,serif" font-size="14.00" fill="#fffffe">bogus</text>
</g>
<!-- fire -->
<g id="node3" class="node"><title>fire</title>
<ellipse fill="none" stroke="black" cx="52" cy="-88" rx="27" ry="18"/>
<text text-anchor="middle" x="52" y="-83.8" font-family="Times,serif" font-size="14.00">fire</text>
</g>
<!-- bogus&#45;&gt;fire -->
<g id="edge1" class="edge"><title>bogus&#45;&gt;fire</title>
<path fill="none" stroke="none" d="M52,-52.1406C52,-54.6226 52,-57.1046 52,-59.5865"/>
<polygon fill="none" stroke="none" points="48.5001,-59.7901 52,-69.7902 55.5001,-59.7902 48.5001,-59.7901"/>
</g>
<!-- bogus3 -->
<g id="node5" class="node"><title>bogus3</title>
<ellipse fill="none" stroke="none" cx="160" cy="-34" rx="35.8147" ry="18"/>
<text text-anchor="middle" x="160" y="-29.8" font-family="Times,serif" font-size="14.00" fill="#fffffe">bogus3</text>
</g>
<!-- bogus&#45;&gt;bogus3 -->
<g id="edge4" class="edge"><title>bogus&#45;&gt;bogus3</title>
<path fill="none" stroke="none" d="M83.3753,-34C92.919,-34 103.668,-34 114.001,-34"/>
<polygon fill="none" stroke="none" points="114.136,-37.5001 124.136,-34 114.136,-30.5001 114.136,-37.5001"/>
</g>
<!-- bogus2 -->
<g id="node2" class="node"><title>bogus2</title>
<ellipse fill="none" stroke="none" cx="52" cy="-142" rx="35.8147" ry="18"/>
<text text-anchor="middle" x="52" y="-137.8" font-family="Times,serif" font-size="14.00" fill="#fffffe">bogus2</text>
</g>
<!-- bogus4 -->
<g id="node6" class="node"><title>bogus4</title>
<ellipse fill="none" stroke="none" cx="160" cy="-142" rx="35.8147" ry="18"/>
<text text-anchor="middle" x="160" y="-137.8" font-family="Times,serif" font-size="14.00" fill="#fffffe">bogus4</text>
</g>
<!-- bogus2&#45;&gt;bogus4 -->
<g id="edge5" class="edge"><title>bogus2&#45;&gt;bogus4</title>
<path fill="none" stroke="none" d="M87.7084,-142C96.1275,-142 105.248,-142 114.065,-142"/>
<polygon fill="none" stroke="none" points="114.214,-145.5 124.214,-142 114.214,-138.5 114.214,-145.5"/>
</g>
<!-- fire&#45;&gt;bogus2 -->
<g id="edge2" class="edge"><title>fire&#45;&gt;bogus2</title>
<path fill="none" stroke="none" d="M52,-106.141C52,-108.623 52,-111.105 52,-113.587"/>
<polygon fill="none" stroke="none" points="48.5001,-113.79 52,-123.79 55.5001,-113.79 48.5001,-113.79"/>
</g>
<!-- aim -->
<g id="node4" class="node"><title>aim</title>
<ellipse fill="none" stroke="black" cx="160" cy="-88" rx="27" ry="18"/>
<text text-anchor="middle" x="160" y="-83.8" font-family="Times,serif" font-size="14.00">aim</text>
</g>
<!-- fire&#45;&gt;aim -->
<g id="edge3" class="edge"><title>fire&#45;&gt;aim</title>
<path fill="none" stroke="black" d="M79.2023,-88C92.325,-88 108.422,-88 122.713,-88"/>
<polygon fill="black" stroke="black" points="122.732,-91.5001 132.732,-88 122.732,-84.5001 122.732,-91.5001"/>
</g>
<!-- branching -->
<g id="node8" class="node"><title>branching</title>
<polygon fill="none" stroke="black" points="277,-106 232.297,-88 277,-70 321.703,-88 277,-106"/>
<text text-anchor="middle" x="277" y="-83.8" font-family="Times,serif" font-size="14.00">valid?</text>
</g>
<!-- aim&#45;&gt;branching -->
<g id="edge6" class="edge"><title>aim&#45;&gt;branching</title>
<path fill="none" stroke="black" d="M187.095,-88C197.45,-88 209.764,-88 221.878,-88"/>
<polygon fill="black" stroke="black" points="221.959,-91.5001 231.959,-88 221.959,-84.5001 221.959,-91.5001"/>
</g>
<!-- aiming -->
<g id="node11" class="node"><title>aiming</title>
<ellipse fill="none" stroke="black" cx="560" cy="-34" rx="55.4196" ry="18"/>
<text text-anchor="middle" x="560" y="-29.8" font-family="Times,serif" font-size="14.00">&#39;X aims at Y&#39;</text>
</g>
<!-- aim&#45;&gt;aiming -->
<g id="edge12" class="edge"><title>aim&#45;&gt;aiming</title>
<path fill="none" stroke="black" d="M181.155,-76.5918C215.919,-57.6434 289.978,-20.4384 358,-7 409.695,3.21287 469.643,-7.74311 510.526,-18.6073"/>
<polygon fill="black" stroke="black" points="509.664,-22.0003 520.235,-21.2809 511.523,-15.2515 509.664,-22.0003"/>
</g>
<!-- bogus5 -->
<g id="node7" class="node"><title>bogus5</title>
<ellipse fill="none" stroke="none" cx="394" cy="-34" rx="35.8147" ry="18"/>
<text text-anchor="middle" x="394" y="-29.8" font-family="Times,serif" font-size="14.00" fill="#fffffe">bogus5</text>
</g>
<!-- bogus5&#45;&gt;aiming -->
<g id="edge11" class="edge"><title>bogus5&#45;&gt;aiming</title>
<path fill="none" stroke="none" d="M429.78,-34C448.449,-34 472.072,-34 493.999,-34"/>
<polygon fill="none" stroke="none" points="494.262,-37.5001 504.262,-34 494.262,-30.5001 494.262,-37.5001"/>
</g>
<!-- kill -->
<g id="node9" class="node"><title>kill</title>
<ellipse fill="none" stroke="black" cx="394" cy="-142" rx="27" ry="18"/>
<text text-anchor="middle" x="394" y="-137.8" font-family="Times,serif" font-size="14.00">kill</text>
</g>
<!-- branching&#45;&gt;kill -->
<g id="edge7" class="edge"><title>branching:n&#45;&gt;kill</title>
<path fill="none" stroke="black" d="M277,-107C277,-140.933 323.059,-145.999 357.131,-145.104"/>
<polygon fill="black" stroke="black" points="357.419,-148.595 367.256,-144.66 357.112,-141.602 357.419,-148.595"/>
</g>
<!-- miss -->
<g id="node10" class="node"><title>miss</title>
<ellipse fill="none" stroke="black" cx="394" cy="-88" rx="27" ry="18"/>
<text text-anchor="middle" x="394" y="-83.8" font-family="Times,serif" font-size="14.00">miss</text>
</g>
<!-- branching&#45;&gt;miss -->
<g id="edge8" class="edge"><title>branching&#45;&gt;miss</title>
<path fill="none" stroke="black" d="M321.805,-88C333.349,-88 345.676,-88 356.772,-88"/>
<polygon fill="black" stroke="black" points="356.968,-91.5001 366.968,-88 356.968,-84.5001 356.968,-91.5001"/>
</g>
<!-- killing -->
<g id="node13" class="node"><title>killing</title>
<ellipse fill="none" stroke="black" cx="560" cy="-142" rx="45.2975" ry="18"/>
<text text-anchor="middle" x="560" y="-137.8" font-family="Times,serif" font-size="14.00">&#39;X kills Y&#39;</text>
</g>
<!-- kill&#45;&gt;killing -->
<g id="edge10" class="edge"><title>kill&#45;&gt;killing</title>
<path fill="none" stroke="black" d="M421.349,-142C443.687,-142 476.457,-142 504.419,-142"/>
<polygon fill="black" stroke="black" points="504.476,-145.5 514.476,-142 504.476,-138.5 504.476,-145.5"/>
</g>
<!-- spamming -->
<g id="node12" class="node"><title>spamming</title>
<ellipse fill="none" stroke="black" cx="560" cy="-88" rx="93.565" ry="18"/>
<text text-anchor="middle" x="560" y="-83.8" font-family="Times,serif" font-size="14.00">&#39;X dodges blast from Y&#39;</text>
</g>
<!-- miss&#45;&gt;spamming -->
<g id="edge9" class="edge"><title>miss&#45;&gt;spamming</title>
<path fill="none" stroke="black" d="M421.349,-88C431.28,-88 443.273,-88 455.989,-88"/>
<polygon fill="black" stroke="black" points="456.316,-91.5001 466.316,-88 456.316,-84.5001 456.316,-91.5001"/>
</g>
</g>
</svg>
